<svg width="20" height="20" viewBox="0 0 20 20" fill="none" xmlns="http://www.w3.org/2000/svg">
<path d="M14.9016 16.0805C13.4359 17.0101 11.7355 17.5024 9.9999 17.4996C5.50657 17.4996 1.76824 14.2663 0.98407 9.99963C1.34243 8.05856 2.31876 6.28538 3.7674 4.94463L1.1599 2.33963L2.33907 1.16046L18.8382 17.6605L17.6591 18.8388L14.9007 16.0805H14.9016ZM4.94574 6.12463C3.81324 7.15429 3.02433 8.50695 2.68574 9.99963C2.94598 11.1383 3.46846 12.2006 4.21157 13.1018C4.95469 14.003 5.89792 14.7183 6.9662 15.1907C8.03447 15.6631 9.19828 15.8797 10.365 15.8231C11.5317 15.7665 12.6691 15.4383 13.6866 14.8646L11.9966 13.1746C11.2771 13.6278 10.4251 13.823 9.5801 13.7283C8.73513 13.6336 7.94744 13.2545 7.34621 12.6533C6.74499 12.0521 6.36593 11.2644 6.2712 10.4194C6.17648 9.57446 6.37172 8.72239 6.8249 8.00296L4.94574 6.12463ZM10.7616 11.9396L8.0599 9.23796C7.91162 9.61541 7.87673 10.0279 7.95949 10.4249C8.04225 10.8219 8.23908 11.1861 8.52583 11.4729C8.81259 11.7596 9.17679 11.9564 9.57378 12.0392C9.97077 12.122 10.3833 12.0871 10.7607 11.9388L10.7616 11.9396ZM17.3391 13.8263L16.1466 12.6346C16.7036 11.8407 17.1002 10.9456 17.3141 9.99963C17.0876 9.00773 16.6618 8.07225 16.0625 7.25004C15.4633 6.42783 14.7031 5.73607 13.8281 5.2168C12.9532 4.69753 11.9818 4.3616 10.973 4.22943C9.96421 4.09726 8.93907 4.17161 7.9599 4.44796L6.6449 3.13296C7.68407 2.72463 8.81657 2.49963 9.9999 2.49963C14.4932 2.49963 18.2316 5.73296 19.0157 9.99963C18.7604 11.3877 18.1865 12.6976 17.3391 13.8263ZM9.76907 6.25629C10.2995 6.22351 10.8308 6.30385 11.3279 6.49198C11.8249 6.6801 12.2762 6.97172 12.652 7.3475C13.0278 7.72329 13.3194 8.17465 13.5076 8.67168C13.6957 9.1687 13.776 9.70004 13.7432 10.2305L9.76824 6.25629H9.76907Z" fill="#0D1126" fill-opacity="0.4"/>
</svg>
